<?xml version="1.0" encoding="UTF-8" standalone="no"?>
<!DOCTYPE svg PUBLIC "-//W3C//DTD SVG 1.1//EN"
 "http://www.w3.org/Graphics/SVG/1.1/DTD/svg11.dtd">
<!-- Generated by graphviz version 2.43.0 (0)
 -->
<!-- Pages: 1 -->
<svg width="711pt" height="836pt"
 viewBox="0.00 0.00 711.14 836.00" xmlns="http://www.w3.org/2000/svg" xmlns:xlink="http://www.w3.org/1999/xlink">
<g id="graph0" class="graph" transform="scale(1 1) rotate(0) translate(4 832)">
<polygon fill="white" stroke="transparent" points="-4,4 -4,-832 707.14,-832 707.14,4 -4,4"/>
<!-- 0 -->
<g id="node1" class="node">
<title>0</title>
<ellipse fill="none" stroke="black" cx="207.69" cy="-810" rx="99.38" ry="18"/>
<text text-anchor="middle" x="207.69" y="-806.3" font-family="Times,serif" font-size="14.00">obtener_calendario</text>
</g>
<!-- 1 -->
<g id="node2" class="node">
<title>1</title>
<ellipse fill="none" stroke="black" cx="171.69" cy="-738" rx="64.99" ry="18"/>
<text text-anchor="middle" x="171.69" y="-734.3" font-family="Times,serif" font-size="14.00">crear_juego</text>
</g>
<!-- 0&#45;&#45;1 -->
<g id="edge1" class="edge">
<title>0&#45;&#45;1</title>
<path fill="none" stroke="black" d="M199.34,-792.76C193.52,-781.46 185.8,-766.44 179.99,-755.15"/>
</g>
<!-- 34 -->
<g id="node3" class="node">
<title>34</title>
<ellipse fill="none" stroke="black" cx="243.69" cy="-738" rx="27" ry="18"/>
<text text-anchor="middle" x="243.69" y="-734.3" font-family="Times,serif" font-size="14.00">[]</text>
</g>
<!-- 0&#45;&#45;34 -->
<g id="edge2" class="edge">
<title>0&#45;&#45;34</title>
<path fill="none" stroke="black" d="M216.04,-792.76C221.86,-781.46 229.58,-766.44 235.39,-755.15"/>
</g>
<!-- 2 -->
<g id="node4" class="node">
<title>2</title>
<ellipse fill="none" stroke="black" cx="63.69" cy="-666" rx="63.89" ry="18"/>
<text text-anchor="middle" x="63.69" y="-662.3" font-family="Times,serif" font-size="14.00">2026&#45;05&#45;11</text>
</g>
<!-- 1&#45;&#45;2 -->
<g id="edge3" class="edge">
<title>1&#45;&#45;2</title>
<path fill="none" stroke="black" d="M152.88,-724.81C133.06,-711.96 102.03,-691.85 82.29,-679.05"/>
</g>
<!-- 3 -->
<g id="node5" class="node">
<title>3</title>
<ellipse fill="none" stroke="black" cx="135.69" cy="-666" rx="27" ry="18"/>
<text text-anchor="middle" x="135.69" y="-662.3" font-family="Times,serif" font-size="14.00">PIT</text>
</g>
<!-- 1&#45;&#45;3 -->
<g id="edge4" class="edge">
<title>1&#45;&#45;3</title>
<path fill="none" stroke="black" d="M163.34,-720.76C157.52,-709.46 149.8,-694.44 143.99,-683.15"/>
</g>
<!-- 4 -->
<g id="node6" class="node">
<title>4</title>
<ellipse fill="none" stroke="black" cx="207.69" cy="-666" rx="32.49" ry="18"/>
<text text-anchor="middle" x="207.69" y="-662.3" font-family="Times,serif" font-size="14.00">WAS</text>
</g>
<!-- 1&#45;&#45;4 -->
<g id="edge5" class="edge">
<title>1&#45;&#45;4</title>
<path fill="none" stroke="black" d="M180.04,-720.76C185.86,-709.46 193.58,-694.44 199.39,-683.15"/>
</g>
<!-- 5 -->
<g id="node7" class="node">
<title>5</title>
<ellipse fill="none" stroke="black" cx="279.69" cy="-666" rx="99.38" ry="18"/>
<text text-anchor="middle" x="279.69" y="-662.3" font-family="Times,serif" font-size="14.00">obtener_calendario</text>
</g>
<!-- 1&#45;&#45;5 -->
<g id="edge6" class="edge">
<title>1&#45;&#45;5</title>
<path fill="none" stroke="black" d="M190.5,-724.81C210.32,-711.96 241.35,-691.85 261.09,-679.05"/>
</g>
<!-- 6 -->
<g id="node8" class="node">
<title>6</title>
<ellipse fill="none" stroke="black" cx="243.69" cy="-594" rx="64.99" ry="18"/>
<text text-anchor="middle" x="243.69" y="-590.3" font-family="Times,serif" font-size="14.00">crear_juego</text>
</g>
<!-- 5&#45;&#45;6 -->
<g id="edge7" class="edge">
<title>5&#45;&#45;6</title>
<path fill="none" stroke="black" d="M271.34,-648.76C265.52,-637.46 257.8,-622.44 251.99,-611.15"/>
</g>
<!-- 33 -->
<g id="node9" class="node">
<title>33</title>
<ellipse fill="none" stroke="black" cx="315.69" cy="-594" rx="27" ry="18"/>
<text text-anchor="middle" x="315.69" y="-590.3" font-family="Times,serif" font-size="14.00">[]</text>
</g>
<!-- 5&#45;&#45;33 -->
<g id="edge8" class="edge">
<title>5&#45;&#45;33</title>
<path fill="none" stroke="black" d="M288.04,-648.76C293.86,-637.46 301.58,-622.44 307.39,-611.15"/>
</g>
<!-- 7 -->
<g id="node10" class="node">
<title>7</title>
<ellipse fill="none" stroke="black" cx="135.69" cy="-522" rx="63.89" ry="18"/>
<text text-anchor="middle" x="135.69" y="-518.3" font-family="Times,serif" font-size="14.00">2026&#45;05&#45;11</text>
</g>
<!-- 6&#45;&#45;7 -->
<g id="edge9" class="edge">
<title>6&#45;&#45;7</title>
<path fill="none" stroke="black" d="M224.88,-580.81C205.06,-567.96 174.03,-547.85 154.29,-535.05"/>
</g>
<!-- 8 -->
<g id="node11" class="node">
<title>8</title>
<ellipse fill="none" stroke="black" cx="207.69" cy="-522" rx="27.1" ry="18"/>
<text text-anchor="middle" x="207.69" y="-518.3" font-family="Times,serif" font-size="14.00">ARI</text>
</g>
<!-- 6&#45;&#45;8 -->
<g id="edge10" class="edge">
<title>6&#45;&#45;8</title>
<path fill="none" stroke="black" d="M235.34,-576.76C229.52,-565.46 221.8,-550.44 215.99,-539.15"/>
</g>
<!-- 9 -->
<g id="node12" class="node">
<title>9</title>
<ellipse fill="none" stroke="black" cx="279.69" cy="-522" rx="31.7" ry="18"/>
<text text-anchor="middle" x="279.69" y="-518.3" font-family="Times,serif" font-size="14.00">CHA</text>
</g>
<!-- 6&#45;&#45;9 -->
<g id="edge11" class="edge">
<title>6&#45;&#45;9</title>
<path fill="none" stroke="black" d="M252.04,-576.76C257.86,-565.46 265.58,-550.44 271.39,-539.15"/>
</g>
<!-- 10 -->
<g id="node13" class="node">
<title>10</title>
<ellipse fill="none" stroke="black" cx="351.69" cy="-522" rx="99.38" ry="18"/>
<text text-anchor="middle" x="351.69" y="-518.3" font-family="Times,serif" font-size="14.00">obtener_calendario</text>
</g>
<!-- 6&#45;&#45;10 -->
<g id="edge12" class="edge">
<title>6&#45;&#45;10</title>
<path fill="none" stroke="black" d="M262.5,-580.81C282.32,-567.96 313.35,-547.85 333.09,-535.05"/>
</g>
<!-- 11 -->
<g id="node14" class="node">
<title>11</title>
<ellipse fill="none" stroke="black" cx="315.69" cy="-450" rx="64.99" ry="18"/>
<text text-anchor="middle" x="315.69" y="-446.3" font-family="Times,serif" font-size="14.00">crear_juego</text>
</g>
<!-- 10&#45;&#45;11 -->
<g id="edge13" class="edge">
<title>10&#45;&#45;11</title>
<path fill="none" stroke="black" d="M343.34,-504.76C337.52,-493.46 329.8,-478.44 323.99,-467.15"/>
</g>
<!-- 32 -->
<g id="node15" class="node">
<title>32</title>
<ellipse fill="none" stroke="black" cx="387.69" cy="-450" rx="27" ry="18"/>
<text text-anchor="middle" x="387.69" y="-446.3" font-family="Times,serif" font-size="14.00">[]</text>
</g>
<!-- 10&#45;&#45;32 -->
<g id="edge14" class="edge">
<title>10&#45;&#45;32</title>
<path fill="none" stroke="black" d="M360.04,-504.76C365.86,-493.46 373.58,-478.44 379.39,-467.15"/>
</g>
<!-- 12 -->
<g id="node16" class="node">
<title>12</title>
<ellipse fill="none" stroke="black" cx="207.69" cy="-378" rx="63.89" ry="18"/>
<text text-anchor="middle" x="207.69" y="-374.3" font-family="Times,serif" font-size="14.00">2026&#45;05&#45;12</text>
</g>
<!-- 11&#45;&#45;12 -->
<g id="edge15" class="edge">
<title>11&#45;&#45;12</title>
<path fill="none" stroke="black" d="M296.88,-436.81C277.06,-423.96 246.03,-403.85 226.29,-391.05"/>
</g>
<!-- 13 -->
<g id="node17" class="node">
<title>13</title>
<ellipse fill="none" stroke="black" cx="279.69" cy="-378" rx="27" ry="18"/>
<text text-anchor="middle" x="279.69" y="-374.3" font-family="Times,serif" font-size="14.00">PIT</text>
</g>
<!-- 11&#45;&#45;13 -->
<g id="edge16" class="edge">
<title>11&#45;&#45;13</title>
<path fill="none" stroke="black" d="M307.34,-432.76C301.52,-421.46 293.8,-406.44 287.99,-395.15"/>
</g>
<!-- 14 -->
<g id="node18" class="node">
<title>14</title>
<ellipse fill="none" stroke="black" cx="351.69" cy="-378" rx="32.49" ry="18"/>
<text text-anchor="middle" x="351.69" y="-374.3" font-family="Times,serif" font-size="14.00">WAS</text>
</g>
<!-- 11&#45;&#45;14 -->
<g id="edge17" class="edge">
<title>11&#45;&#45;14</title>
<path fill="none" stroke="black" d="M324.04,-432.76C329.86,-421.46 337.58,-406.44 343.39,-395.15"/>
</g>
<!-- 15 -->
<g id="node19" class="node">
<title>15</title>
<ellipse fill="none" stroke="black" cx="423.69" cy="-378" rx="64.99" ry="18"/>
<text text-anchor="middle" x="423.69" y="-374.3" font-family="Times,serif" font-size="14.00">crear_juego</text>
</g>
<!-- 11&#45;&#45;15 -->
<g id="edge18" class="edge">
<title>11&#45;&#45;15</title>
<path fill="none" stroke="black" d="M334.5,-436.81C354.32,-423.96 385.35,-403.85 405.09,-391.05"/>
</g>
<!-- 16 -->
<g id="node20" class="node">
<title>16</title>
<ellipse fill="none" stroke="black" cx="315.69" cy="-306" rx="63.89" ry="18"/>
<text text-anchor="middle" x="315.69" y="-302.3" font-family="Times,serif" font-size="14.00">2026&#45;05&#45;16</text>
</g>
<!-- 15&#45;&#45;16 -->
<g id="edge19" class="edge">
<title>15&#45;&#45;16</title>
<path fill="none" stroke="black" d="M404.88,-364.81C385.06,-351.96 354.03,-331.85 334.29,-319.05"/>
</g>
<!-- 17 -->
<g id="node21" class="node">
<title>17</title>
<ellipse fill="none" stroke="black" cx="387.69" cy="-306" rx="27.1" ry="18"/>
<text text-anchor="middle" x="387.69" y="-302.3" font-family="Times,serif" font-size="14.00">ARI</text>
</g>
<!-- 15&#45;&#45;17 -->
<g id="edge20" class="edge">
<title>15&#45;&#45;17</title>
<path fill="none" stroke="black" d="M415.34,-360.76C409.52,-349.46 401.8,-334.44 395.99,-323.15"/>
</g>
<!-- 18 -->
<g id="node22" class="node">
<title>18</title>
<ellipse fill="none" stroke="black" cx="459.69" cy="-306" rx="31.7" ry="18"/>
<text text-anchor="middle" x="459.69" y="-302.3" font-family="Times,serif" font-size="14.00">CHA</text>
</g>
<!-- 15&#45;&#45;18 -->
<g id="edge21" class="edge">
<title>15&#45;&#45;18</title>
<path fill="none" stroke="black" d="M432.04,-360.76C437.86,-349.46 445.58,-334.44 451.39,-323.15"/>
</g>
<!-- 19 -->
<g id="node23" class="node">
<title>19</title>
<ellipse fill="none" stroke="black" cx="531.69" cy="-306" rx="99.38" ry="18"/>
<text text-anchor="middle" x="531.69" y="-302.3" font-family="Times,serif" font-size="14.00">obtener_calendario</text>
</g>
<!-- 15&#45;&#45;19 -->
<g id="edge22" class="edge">
<title>15&#45;&#45;19</title>
<path fill="none" stroke="black" d="M442.5,-364.81C462.32,-351.96 493.35,-331.85 513.09,-319.05"/>
</g>
<!-- 20 -->
<g id="node24" class="node">
<title>20</title>
<ellipse fill="none" stroke="black" cx="495.69" cy="-234" rx="64.99" ry="18"/>
<text text-anchor="middle" x="495.69" y="-230.3" font-family="Times,serif" font-size="14.00">crear_juego</text>
</g>
<!-- 19&#45;&#45;20 -->
<g id="edge23" class="edge">
<title>19&#45;&#45;20</title>
<path fill="none" stroke="black" d="M523.34,-288.76C517.52,-277.46 509.8,-262.44 503.99,-251.15"/>
</g>
<!-- 31 -->
<g id="node25" class="node">
<title>31</title>
<ellipse fill="none" stroke="black" cx="567.69" cy="-234" rx="27" ry="18"/>
<text text-anchor="middle" x="567.69" y="-230.3" font-family="Times,serif" font-size="14.00">[]</text>
</g>
<!-- 19&#45;&#45;31 -->
<g id="edge24" class="edge">
<title>19&#45;&#45;31</title>
<path fill="none" stroke="black" d="M540.04,-288.76C545.86,-277.46 553.58,-262.44 559.39,-251.15"/>
</g>
<!-- 21 -->
<g id="node26" class="node">
<title>21</title>
<ellipse fill="none" stroke="black" cx="387.69" cy="-162" rx="63.89" ry="18"/>
<text text-anchor="middle" x="387.69" y="-158.3" font-family="Times,serif" font-size="14.00">2026&#45;05&#45;18</text>
</g>
<!-- 20&#45;&#45;21 -->
<g id="edge25" class="edge">
<title>20&#45;&#45;21</title>
<path fill="none" stroke="black" d="M476.88,-220.81C457.06,-207.96 426.03,-187.85 406.29,-175.05"/>
</g>
<!-- 22 -->
<g id="node27" class="node">
<title>22</title>
<ellipse fill="none" stroke="black" cx="459.69" cy="-162" rx="27.1" ry="18"/>
<text text-anchor="middle" x="459.69" y="-158.3" font-family="Times,serif" font-size="14.00">ARI</text>
</g>
<!-- 20&#45;&#45;22 -->
<g id="edge26" class="edge">
<title>20&#45;&#45;22</title>
<path fill="none" stroke="black" d="M487.34,-216.76C481.52,-205.46 473.8,-190.44 467.99,-179.15"/>
</g>
<!-- 23 -->
<g id="node28" class="node">
<title>23</title>
<ellipse fill="none" stroke="black" cx="531.69" cy="-162" rx="31.7" ry="18"/>
<text text-anchor="middle" x="531.69" y="-158.3" font-family="Times,serif" font-size="14.00">CHA</text>
</g>
<!-- 20&#45;&#45;23 -->
<g id="edge27" class="edge">
<title>20&#45;&#45;23</title>
<path fill="none" stroke="black" d="M504.04,-216.76C509.86,-205.46 517.58,-190.44 523.39,-179.15"/>
</g>
<!-- 24 -->
<g id="node29" class="node">
<title>24</title>
<ellipse fill="none" stroke="black" cx="603.69" cy="-162" rx="99.38" ry="18"/>
<text text-anchor="middle" x="603.69" y="-158.3" font-family="Times,serif" font-size="14.00">obtener_calendario</text>
</g>
<!-- 20&#45;&#45;24 -->
<g id="edge28" class="edge">
<title>20&#45;&#45;24</title>
<path fill="none" stroke="black" d="M514.5,-220.81C534.32,-207.96 565.35,-187.85 585.09,-175.05"/>
</g>
<!-- 25 -->
<g id="node30" class="node">
<title>25</title>
<ellipse fill="none" stroke="black" cx="567.69" cy="-90" rx="64.99" ry="18"/>
<text text-anchor="middle" x="567.69" y="-86.3" font-family="Times,serif" font-size="14.00">crear_juego</text>
</g>
<!-- 24&#45;&#45;25 -->
<g id="edge29" class="edge">
<title>24&#45;&#45;25</title>
<path fill="none" stroke="black" d="M595.34,-144.76C589.52,-133.46 581.8,-118.44 575.99,-107.15"/>
</g>
<!-- 30 -->
<g id="node31" class="node">
<title>30</title>
<ellipse fill="none" stroke="black" cx="639.69" cy="-90" rx="27" ry="18"/>
<text text-anchor="middle" x="639.69" y="-86.3" font-family="Times,serif" font-size="14.00">[]</text>
</g>
<!-- 24&#45;&#45;30 -->
<g id="edge30" class="edge">
<title>24&#45;&#45;30</title>
<path fill="none" stroke="black" d="M612.04,-144.76C617.86,-133.46 625.58,-118.44 631.39,-107.15"/>
</g>
<!-- 26 -->
<g id="node32" class="node">
<title>26</title>
<ellipse fill="none" stroke="black" cx="459.69" cy="-18" rx="63.89" ry="18"/>
<text text-anchor="middle" x="459.69" y="-14.3" font-family="Times,serif" font-size="14.00">2026&#45;05&#45;18</text>
</g>
<!-- 25&#45;&#45;26 -->
<g id="edge31" class="edge">
<title>25&#45;&#45;26</title>
<path fill="none" stroke="black" d="M548.88,-76.81C529.06,-63.96 498.03,-43.85 478.29,-31.05"/>
</g>
<!-- 27 -->
<g id="node33" class="node">
<title>27</title>
<ellipse fill="none" stroke="black" cx="531.69" cy="-18" rx="27" ry="18"/>
<text text-anchor="middle" x="531.69" y="-14.3" font-family="Times,serif" font-size="14.00">PIT</text>
</g>
<!-- 25&#45;&#45;27 -->
<g id="edge32" class="edge">
<title>25&#45;&#45;27</title>
<path fill="none" stroke="black" d="M559.34,-72.77C553.52,-61.46 545.8,-46.44 539.99,-35.15"/>
</g>
<!-- 28 -->
<g id="node34" class="node">
<title>28</title>
<ellipse fill="none" stroke="black" cx="603.69" cy="-18" rx="32.49" ry="18"/>
<text text-anchor="middle" x="603.69" y="-14.3" font-family="Times,serif" font-size="14.00">WAS</text>
</g>
<!-- 25&#45;&#45;28 -->
<g id="edge33" class="edge">
<title>25&#45;&#45;28</title>
<path fill="none" stroke="black" d="M576.04,-72.77C581.86,-61.46 589.58,-46.44 595.39,-35.15"/>
</g>
<!-- 29 -->
<g id="node35" class="node">
<title>29</title>
<ellipse fill="none" stroke="black" cx="675.69" cy="-18" rx="27" ry="18"/>
<text text-anchor="middle" x="675.69" y="-14.3" font-family="Times,serif" font-size="14.00">[]</text>
</g>
<!-- 25&#45;&#45;29 -->
<g id="edge34" class="edge">
<title>25&#45;&#45;29</title>
<path fill="none" stroke="black" d="M586.5,-76.81C606.32,-63.96 637.35,-43.85 657.09,-31.05"/>
</g>
</g>
</svg>
