<?xml version="1.0" encoding="UTF-8" standalone="no"?>
<!DOCTYPE svg PUBLIC "-//W3C//DTD SVG 1.1//EN"
 "http://www.w3.org/Graphics/SVG/1.1/DTD/svg11.dtd">
<!-- Generated by graphviz version 14.1.5 (20260411.2331)
 -->
<!-- Pages: 1 -->
<svg width="562pt" height="1134pt"
 viewBox="0.00 0.00 562.00 1134.00" xmlns="http://www.w3.org/2000/svg" xmlns:xlink="http://www.w3.org/1999/xlink">
<g id="graph0" class="graph" transform="scale(1 1) rotate(0) translate(4 1130.37)">
<polygon fill="white" stroke="none" points="-4,4 -4,-1130.37 557.81,-1130.37 557.81,4 -4,4"/>
<!-- 0 -->
<g id="node1" class="node">
<title>0</title>
<ellipse fill="none" stroke="black" cx="127.75" cy="-1032.95" rx="81.55" ry="18"/>
<text xml:space="preserve" text-anchor="middle" x="127.75" y="-1027.9" font-family="Times New Roman,serif" font-size="14.00">obtener_calendario</text>
</g>
<!-- 1 -->
<g id="node2" class="node">
<title>1</title>
<ellipse fill="none" stroke="black" cx="123.52" cy="-949.84" rx="54.42" ry="18"/>
<text xml:space="preserve" text-anchor="middle" x="123.52" y="-944.79" font-family="Times New Roman,serif" font-size="14.00">crear_juego</text>
</g>
<!-- 0&#45;&#45;1 -->
<g id="edge1" class="edge">
<title>0&#45;&#45;1</title>
<path fill="none" stroke="black" d="M126.81,-1014.5C126.11,-1000.73 125.16,-981.99 124.46,-968.23"/>
</g>
<!-- 38 -->
<g id="node39" class="node">
<title>38</title>
<ellipse fill="none" stroke="black" cx="151.53" cy="-1108.37" rx="27" ry="18"/>
<text xml:space="preserve" text-anchor="middle" x="151.53" y="-1103.32" font-family="Times New Roman,serif" font-size="14.00">[]</text>
</g>
<!-- 0&#45;&#45;38 -->
<g id="edge38" class="edge">
<title>0&#45;&#45;38</title>
<path fill="none" stroke="black" d="M133.5,-1051.2C137.24,-1063.06 142.1,-1078.46 145.83,-1090.28"/>
</g>
<!-- 2 -->
<g id="node3" class="node">
<title>2</title>
<ellipse fill="none" stroke="black" cx="53.91" cy="-988.45" rx="53.91" ry="18"/>
<text xml:space="preserve" text-anchor="middle" x="53.91" y="-983.4" font-family="Times New Roman,serif" font-size="14.00">2026&#45;05&#45;11</text>
</g>
<!-- 1&#45;&#45;2 -->
<g id="edge2" class="edge">
<title>1&#45;&#45;2</title>
<path fill="none" stroke="black" d="M95.21,-965.55C90.84,-967.97 86.34,-970.47 81.97,-972.89"/>
</g>
<!-- 3 -->
<g id="node4" class="node">
<title>3</title>
<ellipse fill="none" stroke="black" cx="36.82" cy="-936.55" rx="27" ry="18"/>
<text xml:space="preserve" text-anchor="middle" x="36.82" y="-931.5" font-family="Times New Roman,serif" font-size="14.00">PIT</text>
</g>
<!-- 1&#45;&#45;3 -->
<g id="edge3" class="edge">
<title>1&#45;&#45;3</title>
<path fill="none" stroke="black" d="M73.59,-942.19C70.12,-941.66 66.72,-941.13 63.46,-940.63"/>
</g>
<!-- 4 -->
<g id="node5" class="node">
<title>4</title>
<ellipse fill="none" stroke="black" cx="188.47" cy="-1003.24" rx="30.88" ry="18"/>
<text xml:space="preserve" text-anchor="middle" x="188.47" y="-998.19" font-family="Times New Roman,serif" font-size="14.00">WAS</text>
</g>
<!-- 1&#45;&#45;4 -->
<g id="edge4" class="edge">
<title>1&#45;&#45;4</title>
<path fill="none" stroke="black" d="M144.07,-966.74C152.55,-973.7 162.28,-981.7 170.47,-988.43"/>
</g>
<!-- 5 -->
<g id="node6" class="node">
<title>5</title>
<ellipse fill="none" stroke="black" cx="172.33" cy="-878.98" rx="81.55" ry="18"/>
<text xml:space="preserve" text-anchor="middle" x="172.33" y="-873.93" font-family="Times New Roman,serif" font-size="14.00">obtener_calendario</text>
</g>
<!-- 1&#45;&#45;5 -->
<g id="edge5" class="edge">
<title>1&#45;&#45;5</title>
<path fill="none" stroke="black" d="M135.84,-931.96C143.18,-921.3 152.48,-907.8 159.85,-897.1"/>
</g>
<!-- 6 -->
<g id="node7" class="node">
<title>6</title>
<ellipse fill="none" stroke="black" cx="173.66" cy="-790.14" rx="54.42" ry="18"/>
<text xml:space="preserve" text-anchor="middle" x="173.66" y="-785.09" font-family="Times New Roman,serif" font-size="14.00">crear_juego</text>
</g>
<!-- 5&#45;&#45;6 -->
<g id="edge6" class="edge">
<title>5&#45;&#45;6</title>
<path fill="none" stroke="black" d="M172.6,-860.57C172.83,-845.32 173.15,-823.76 173.38,-808.53"/>
</g>
<!-- 37 -->
<g id="node38" class="node">
<title>37</title>
<ellipse fill="none" stroke="black" cx="250.71" cy="-922.62" rx="27" ry="18"/>
<text xml:space="preserve" text-anchor="middle" x="250.71" y="-917.57" font-family="Times New Roman,serif" font-size="14.00">[]</text>
</g>
<!-- 5&#45;&#45;37 -->
<g id="edge37" class="edge">
<title>5&#45;&#45;37</title>
<path fill="none" stroke="black" d="M202.86,-895.97C211.8,-900.95 221.37,-906.28 229.59,-910.86"/>
</g>
<!-- 7 -->
<g id="node8" class="node">
<title>7</title>
<ellipse fill="none" stroke="black" cx="93.35" cy="-794.63" rx="53.91" ry="18"/>
<text xml:space="preserve" text-anchor="middle" x="93.35" y="-789.58" font-family="Times New Roman,serif" font-size="14.00">2026&#45;05&#45;11</text>
</g>
<!-- 6&#45;&#45;7 -->
<g id="edge7" class="edge">
<title>6&#45;&#45;7</title>
<path fill="none" stroke="black" d="M119.65,-793.16C119.53,-793.17 119.42,-793.17 119.31,-793.18"/>
</g>
<!-- 8 -->
<g id="node9" class="node">
<title>8</title>
<ellipse fill="none" stroke="black" cx="96.77" cy="-753.62" rx="30.37" ry="18"/>
<text xml:space="preserve" text-anchor="middle" x="96.77" y="-748.57" font-family="Times New Roman,serif" font-size="14.00">CHA</text>
</g>
<!-- 6&#45;&#45;8 -->
<g id="edge8" class="edge">
<title>6&#45;&#45;8</title>
<path fill="none" stroke="black" d="M141.94,-775.08C134.82,-771.7 127.39,-768.17 120.66,-764.97"/>
</g>
<!-- 9 -->
<g id="node10" class="node">
<title>9</title>
<ellipse fill="none" stroke="black" cx="241.31" cy="-826.64" rx="27" ry="18"/>
<text xml:space="preserve" text-anchor="middle" x="241.31" y="-821.59" font-family="Times New Roman,serif" font-size="14.00">ARI</text>
</g>
<!-- 6&#45;&#45;9 -->
<g id="edge9" class="edge">
<title>6&#45;&#45;9</title>
<path fill="none" stroke="black" d="M202.74,-805.83C208.61,-809 214.68,-812.28 220.21,-815.26"/>
</g>
<!-- 10 -->
<g id="node11" class="node">
<title>10</title>
<ellipse fill="none" stroke="black" cx="228.36" cy="-721.13" rx="81.55" ry="18"/>
<text xml:space="preserve" text-anchor="middle" x="228.36" y="-716.08" font-family="Times New Roman,serif" font-size="14.00">obtener_calendario</text>
</g>
<!-- 6&#45;&#45;10 -->
<g id="edge10" class="edge">
<title>6&#45;&#45;10</title>
<path fill="none" stroke="black" d="M187.75,-772.37C195.85,-762.15 206,-749.34 214.13,-739.08"/>
</g>
<!-- 11 -->
<g id="node12" class="node">
<title>11</title>
<ellipse fill="none" stroke="black" cx="235.8" cy="-633.57" rx="54.42" ry="18"/>
<text xml:space="preserve" text-anchor="middle" x="235.8" y="-628.52" font-family="Times New Roman,serif" font-size="14.00">crear_juego</text>
</g>
<!-- 10&#45;&#45;11 -->
<g id="edge11" class="edge">
<title>10&#45;&#45;11</title>
<path fill="none" stroke="black" d="M229.9,-702.99C231.17,-688.06 232.96,-666.99 234.23,-651.99"/>
</g>
<!-- 36 -->
<g id="node37" class="node">
<title>36</title>
<ellipse fill="none" stroke="black" cx="310.45" cy="-759.38" rx="27" ry="18"/>
<text xml:space="preserve" text-anchor="middle" x="310.45" y="-754.33" font-family="Times New Roman,serif" font-size="14.00">[]</text>
</g>
<!-- 10&#45;&#45;36 -->
<g id="edge36" class="edge">
<title>10&#45;&#45;36</title>
<path fill="none" stroke="black" d="M263.65,-737.58C272,-741.46 280.66,-745.5 288.24,-749.03"/>
</g>
<!-- 12 -->
<g id="node13" class="node">
<title>12</title>
<ellipse fill="none" stroke="black" cx="150.53" cy="-621.63" rx="53.91" ry="18"/>
<text xml:space="preserve" text-anchor="middle" x="150.53" y="-616.58" font-family="Times New Roman,serif" font-size="14.00">2026&#45;05&#45;12</text>
</g>
<!-- 11&#45;&#45;12 -->
<g id="edge12" class="edge">
<title>11&#45;&#45;12</title>
<path fill="none" stroke="black" d="M185.21,-626.49C185.07,-626.47 184.93,-626.45 184.78,-626.43"/>
</g>
<!-- 13 -->
<g id="node14" class="node">
<title>13</title>
<ellipse fill="none" stroke="black" cx="169.93" cy="-589.31" rx="27" ry="18"/>
<text xml:space="preserve" text-anchor="middle" x="169.93" y="-584.26" font-family="Times New Roman,serif" font-size="14.00">PIT</text>
</g>
<!-- 11&#45;&#45;13 -->
<g id="edge13" class="edge">
<title>11&#45;&#45;13</title>
<path fill="none" stroke="black" d="M211.27,-617.09C203.95,-612.17 196.04,-606.86 189.12,-602.21"/>
</g>
<!-- 14 -->
<g id="node15" class="node">
<title>14</title>
<ellipse fill="none" stroke="black" cx="306.32" cy="-665.54" rx="30.88" ry="18"/>
<text xml:space="preserve" text-anchor="middle" x="306.32" y="-660.49" font-family="Times New Roman,serif" font-size="14.00">WAS</text>
</g>
<!-- 11&#45;&#45;14 -->
<g id="edge14" class="edge">
<title>11&#45;&#45;14</title>
<path fill="none" stroke="black" d="M268.17,-648.24C272.66,-650.28 277.21,-652.34 281.53,-654.3"/>
</g>
<!-- 15 -->
<g id="node16" class="node">
<title>15</title>
<ellipse fill="none" stroke="black" cx="293.68" cy="-566.47" rx="81.55" ry="18"/>
<text xml:space="preserve" text-anchor="middle" x="293.68" y="-561.42" font-family="Times New Roman,serif" font-size="14.00">obtener_calendario</text>
</g>
<!-- 11&#45;&#45;15 -->
<g id="edge15" class="edge">
<title>11&#45;&#45;15</title>
<path fill="none" stroke="black" d="M251,-615.94C259.45,-606.15 269.92,-594.02 278.37,-584.21"/>
</g>
<!-- 16 -->
<g id="node17" class="node">
<title>16</title>
<ellipse fill="none" stroke="black" cx="303.9" cy="-479.66" rx="54.42" ry="18"/>
<text xml:space="preserve" text-anchor="middle" x="303.9" y="-474.61" font-family="Times New Roman,serif" font-size="14.00">crear_juego</text>
</g>
<!-- 15&#45;&#45;16 -->
<g id="edge16" class="edge">
<title>15&#45;&#45;16</title>
<path fill="none" stroke="black" d="M295.85,-548.06C297.58,-533.33 300,-512.77 301.74,-498.04"/>
</g>
<!-- 35 -->
<g id="node36" class="node">
<title>35</title>
<ellipse fill="none" stroke="black" cx="377.43" cy="-601.76" rx="27" ry="18"/>
<text xml:space="preserve" text-anchor="middle" x="377.43" y="-596.71" font-family="Times New Roman,serif" font-size="14.00">[]</text>
</g>
<!-- 15&#45;&#45;35 -->
<g id="edge35" class="edge">
<title>15&#45;&#45;35</title>
<path fill="none" stroke="black" d="M332.13,-582.67C339.69,-585.86 347.41,-589.11 354.28,-592"/>
</g>
<!-- 17 -->
<g id="node18" class="node">
<title>17</title>
<ellipse fill="none" stroke="black" cx="218.02" cy="-457.99" rx="53.91" ry="18"/>
<text xml:space="preserve" text-anchor="middle" x="218.02" y="-452.94" font-family="Times New Roman,serif" font-size="14.00">2026&#45;05&#45;12</text>
</g>
<!-- 16&#45;&#45;17 -->
<g id="edge17" class="edge">
<title>16&#45;&#45;17</title>
<path fill="none" stroke="black" d="M259.96,-468.57C259.79,-468.53 259.63,-468.49 259.46,-468.45"/>
</g>
<!-- 18 -->
<g id="node19" class="node">
<title>18</title>
<ellipse fill="none" stroke="black" cx="245.14" cy="-431.2" rx="30.37" ry="18"/>
<text xml:space="preserve" text-anchor="middle" x="245.14" y="-426.15" font-family="Times New Roman,serif" font-size="14.00">CHA</text>
</g>
<!-- 16&#45;&#45;18 -->
<g id="edge18" class="edge">
<title>16&#45;&#45;18</title>
<path fill="none" stroke="black" d="M283.35,-462.71C276.73,-457.25 269.45,-451.25 263.04,-445.96"/>
</g>
<!-- 19 -->
<g id="node20" class="node">
<title>19</title>
<ellipse fill="none" stroke="black" cx="377.38" cy="-507.51" rx="27" ry="18"/>
<text xml:space="preserve" text-anchor="middle" x="377.38" y="-502.46" font-family="Times New Roman,serif" font-size="14.00">ARI</text>
</g>
<!-- 16&#45;&#45;19 -->
<g id="edge19" class="edge">
<title>16&#45;&#45;19</title>
<path fill="none" stroke="black" d="M340.21,-493.42C344.84,-495.17 349.47,-496.93 353.83,-498.58"/>
</g>
<!-- 20 -->
<g id="node21" class="node">
<title>20</title>
<ellipse fill="none" stroke="black" cx="362.02" cy="-412.55" rx="81.55" ry="18"/>
<text xml:space="preserve" text-anchor="middle" x="362.02" y="-407.5" font-family="Times New Roman,serif" font-size="14.00">obtener_calendario</text>
</g>
<!-- 16&#45;&#45;20 -->
<g id="edge20" class="edge">
<title>16&#45;&#45;20</title>
<path fill="none" stroke="black" d="M319.17,-462.03C327.65,-452.24 338.16,-440.1 346.65,-430.3"/>
</g>
<!-- 21 -->
<g id="node22" class="node">
<title>21</title>
<ellipse fill="none" stroke="black" cx="372.92" cy="-326.11" rx="54.42" ry="18"/>
<text xml:space="preserve" text-anchor="middle" x="372.92" y="-321.06" font-family="Times New Roman,serif" font-size="14.00">crear_juego</text>
</g>
<!-- 20&#45;&#45;21 -->
<g id="edge21" class="edge">
<title>20&#45;&#45;21</title>
<path fill="none" stroke="black" d="M364.34,-394.22C366.19,-379.55 368.77,-359.08 370.61,-344.41"/>
</g>
<!-- 34 -->
<g id="node35" class="node">
<title>34</title>
<ellipse fill="none" stroke="black" cx="447.44" cy="-442.48" rx="27" ry="18"/>
<text xml:space="preserve" text-anchor="middle" x="447.44" y="-437.43" font-family="Times New Roman,serif" font-size="14.00">[]</text>
</g>
<!-- 20&#45;&#45;34 -->
<g id="edge34" class="edge">
<title>20&#45;&#45;34</title>
<path fill="none" stroke="black" d="M406.23,-428.04C412.1,-430.09 417.92,-432.13 423.26,-434.01"/>
</g>
<!-- 22 -->
<g id="node23" class="node">
<title>22</title>
<ellipse fill="none" stroke="black" cx="289.26" cy="-297.05" rx="53.91" ry="18"/>
<text xml:space="preserve" text-anchor="middle" x="289.26" y="-292" font-family="Times New Roman,serif" font-size="14.00">2026&#45;05&#45;13</text>
</g>
<!-- 21&#45;&#45;22 -->
<g id="edge22" class="edge">
<title>21&#45;&#45;22</title>
<path fill="none" stroke="black" d="M335.01,-312.94C332.41,-312.04 329.8,-311.13 327.21,-310.23"/>
</g>
<!-- 23 -->
<g id="node24" class="node">
<title>23</title>
<ellipse fill="none" stroke="black" cx="322.65" cy="-271.44" rx="27" ry="18"/>
<text xml:space="preserve" text-anchor="middle" x="322.65" y="-266.39" font-family="Times New Roman,serif" font-size="14.00">PIT</text>
</g>
<!-- 21&#45;&#45;23 -->
<g id="edge23" class="edge">
<title>21&#45;&#45;23</title>
<path fill="none" stroke="black" d="M356.74,-308.51C350.43,-301.64 343.24,-293.83 337.11,-287.16"/>
</g>
<!-- 24 -->
<g id="node25" class="node">
<title>24</title>
<ellipse fill="none" stroke="black" cx="450.39" cy="-345.79" rx="30.88" ry="18"/>
<text xml:space="preserve" text-anchor="middle" x="450.39" y="-340.74" font-family="Times New Roman,serif" font-size="14.00">WAS</text>
</g>
<!-- 21&#45;&#45;24 -->
<g id="edge24" class="edge">
<title>21&#45;&#45;24</title>
<path fill="none" stroke="black" d="M416.64,-337.21C418.42,-337.67 420.19,-338.12 421.93,-338.56"/>
</g>
<!-- 25 -->
<g id="node26" class="node">
<title>25</title>
<ellipse fill="none" stroke="black" cx="429.05" cy="-257.61" rx="81.55" ry="18"/>
<text xml:space="preserve" text-anchor="middle" x="429.05" y="-252.56" font-family="Times New Roman,serif" font-size="14.00">obtener_calendario</text>
</g>
<!-- 21&#45;&#45;25 -->
<g id="edge25" class="edge">
<title>21&#45;&#45;25</title>
<path fill="none" stroke="black" d="M387.38,-308.47C395.69,-298.32 406.11,-285.6 414.45,-275.43"/>
</g>
<!-- 26 -->
<g id="node27" class="node">
<title>26</title>
<ellipse fill="none" stroke="black" cx="439.56" cy="-173.93" rx="81.55" ry="18"/>
<text xml:space="preserve" text-anchor="middle" x="439.56" y="-168.88" font-family="Times New Roman,serif" font-size="14.00">obtener_calendario</text>
</g>
<!-- 25&#45;&#45;26 -->
<g id="edge26" class="edge">
<title>25&#45;&#45;26</title>
<path fill="none" stroke="black" d="M431.33,-239.45C433.08,-225.51 435.49,-206.34 437.25,-192.34"/>
</g>
<!-- 33 -->
<g id="node34" class="node">
<title>33</title>
<ellipse fill="none" stroke="black" cx="516.86" cy="-273.73" rx="27" ry="18"/>
<text xml:space="preserve" text-anchor="middle" x="516.86" y="-268.68" font-family="Times New Roman,serif" font-size="14.00">[]</text>
</g>
<!-- 25&#45;&#45;33 -->
<g id="edge33" class="edge">
<title>25&#45;&#45;33</title>
<path fill="none" stroke="black" d="M492.4,-269.24C492.51,-269.26 492.62,-269.28 492.73,-269.3"/>
</g>
<!-- 27 -->
<g id="node28" class="node">
<title>27</title>
<ellipse fill="none" stroke="black" cx="417.13" cy="-90.79" rx="54.42" ry="18"/>
<text xml:space="preserve" text-anchor="middle" x="417.13" y="-85.74" font-family="Times New Roman,serif" font-size="14.00">crear_juego</text>
</g>
<!-- 26&#45;&#45;27 -->
<g id="edge27" class="edge">
<title>26&#45;&#45;27</title>
<path fill="none" stroke="black" d="M434.58,-155.48C430.86,-141.7 425.81,-122.95 422.09,-109.19"/>
</g>
<!-- 32 -->
<g id="node33" class="node">
<title>32</title>
<ellipse fill="none" stroke="black" cx="526.81" cy="-166.07" rx="27" ry="18"/>
<text xml:space="preserve" text-anchor="middle" x="526.81" y="-161.02" font-family="Times New Roman,serif" font-size="14.00">[]</text>
</g>
<!-- 26&#45;&#45;32 -->
<g id="edge32" class="edge">
<title>26&#45;&#45;32</title>
<path fill="none" stroke="black" d="M515.4,-167.1C515.51,-167.09 515.62,-167.08 515.73,-167.07"/>
</g>
<!-- 28 -->
<g id="node29" class="node">
<title>28</title>
<ellipse fill="none" stroke="black" cx="335.93" cy="-62.6" rx="53.91" ry="18"/>
<text xml:space="preserve" text-anchor="middle" x="335.93" y="-57.55" font-family="Times New Roman,serif" font-size="14.00">2026&#45;05&#45;18</text>
</g>
<!-- 27&#45;&#45;28 -->
<g id="edge28" class="edge">
<title>27&#45;&#45;28</title>
<path fill="none" stroke="black" d="M378.91,-77.52C377.26,-76.95 375.61,-76.38 373.97,-75.81"/>
</g>
<!-- 29 -->
<g id="node30" class="node">
<title>29</title>
<ellipse fill="none" stroke="black" cx="376.31" cy="-20.43" rx="30.37" ry="18"/>
<text xml:space="preserve" text-anchor="middle" x="376.31" y="-15.38" font-family="Times New Roman,serif" font-size="14.00">CHA</text>
</g>
<!-- 27&#45;&#45;29 -->
<g id="edge29" class="edge">
<title>27&#45;&#45;29</title>
<path fill="none" stroke="black" d="M406.62,-72.67C400.38,-61.92 392.52,-48.37 386.37,-37.76"/>
</g>
<!-- 30 -->
<g id="node31" class="node">
<title>30</title>
<ellipse fill="none" stroke="black" cx="447.47" cy="-18" rx="27" ry="18"/>
<text xml:space="preserve" text-anchor="middle" x="447.47" y="-12.95" font-family="Times New Roman,serif" font-size="14.00">ARI</text>
</g>
<!-- 27&#45;&#45;30 -->
<g id="edge30" class="edge">
<title>27&#45;&#45;30</title>
<path fill="none" stroke="black" d="M424.63,-72.79C429.33,-61.51 435.37,-47.03 440.05,-35.79"/>
</g>
<!-- 31 -->
<g id="node32" class="node">
<title>31</title>
<ellipse fill="none" stroke="black" cx="498.15" cy="-57.58" rx="27" ry="18"/>
<text xml:space="preserve" text-anchor="middle" x="498.15" y="-52.53" font-family="Times New Roman,serif" font-size="14.00">[]</text>
</g>
<!-- 27&#45;&#45;31 -->
<g id="edge31" class="edge">
<title>27&#45;&#45;31</title>
<path fill="none" stroke="black" d="M451.96,-76.51C459.68,-73.35 467.68,-70.07 474.81,-67.14"/>
</g>
</g>
</svg>
