<?xml version="1.0" encoding="UTF-8" standalone="no"?>
<!DOCTYPE svg PUBLIC "-//W3C//DTD SVG 1.1//EN"
 "http://www.w3.org/Graphics/SVG/1.1/DTD/svg11.dtd">
<!-- Generated by graphviz version 14.1.2 (20260126.1125)
 -->
<!-- Pages: 1 -->
<svg width="715pt" height="836pt"
 viewBox="0.00 0.00 715.00 836.00" xmlns="http://www.w3.org/2000/svg" xmlns:xlink="http://www.w3.org/1999/xlink">
<g id="graph0" class="graph" transform="scale(1 1) rotate(0) translate(4 832)">
<polygon fill="white" stroke="none" points="-4,4 -4,-832 711.04,-832 711.04,4 -4,4"/>
<!-- 0 -->
<g id="node1" class="node">
<title>0</title>
<ellipse fill="none" stroke="black" cx="212.04" cy="-810" rx="106.98" ry="18"/>
<text xml:space="preserve" text-anchor="middle" x="212.04" y="-805.33" font-family="Times,serif" font-size="14.00">obtener_calendario</text>
</g>
<!-- 1 -->
<g id="node2" class="node">
<title>1</title>
<ellipse fill="none" stroke="black" cx="176.04" cy="-738" rx="69.62" ry="18"/>
<text xml:space="preserve" text-anchor="middle" x="176.04" y="-733.33" font-family="Times,serif" font-size="14.00">crear_juego</text>
</g>
<!-- 0&#45;&#45;1 -->
<g id="edge1" class="edge">
<title>0&#45;&#45;1</title>
<path fill="none" stroke="black" d="M203.69,-792.76C197.87,-781.46 190.15,-766.44 184.34,-755.15"/>
</g>
<!-- 34 -->
<g id="node3" class="node">
<title>34</title>
<ellipse fill="none" stroke="black" cx="248.04" cy="-738" rx="27" ry="18"/>
<text xml:space="preserve" text-anchor="middle" x="248.04" y="-733.33" font-family="Times,serif" font-size="14.00">[]</text>
</g>
<!-- 0&#45;&#45;34 -->
<g id="edge2" class="edge">
<title>0&#45;&#45;34</title>
<path fill="none" stroke="black" d="M220.39,-792.76C226.21,-781.46 233.93,-766.44 239.74,-755.15"/>
</g>
<!-- 2 -->
<g id="node4" class="node">
<title>2</title>
<ellipse fill="none" stroke="black" cx="68.04" cy="-666" rx="68.04" ry="18"/>
<text xml:space="preserve" text-anchor="middle" x="68.04" y="-661.33" font-family="Times,serif" font-size="14.00">2026&#45;05&#45;11</text>
</g>
<!-- 1&#45;&#45;2 -->
<g id="edge3" class="edge">
<title>1&#45;&#45;2</title>
<path fill="none" stroke="black" d="M157.23,-724.81C137.53,-712.04 106.76,-692.09 87,-679.29"/>
</g>
<!-- 3 -->
<g id="node5" class="node">
<title>3</title>
<ellipse fill="none" stroke="black" cx="140.04" cy="-666" rx="34.37" ry="18"/>
<text xml:space="preserve" text-anchor="middle" x="140.04" y="-661.33" font-family="Times,serif" font-size="14.00">WAS</text>
</g>
<!-- 1&#45;&#45;3 -->
<g id="edge4" class="edge">
<title>1&#45;&#45;3</title>
<path fill="none" stroke="black" d="M167.69,-720.76C161.87,-709.46 154.15,-694.44 148.34,-683.15"/>
</g>
<!-- 4 -->
<g id="node6" class="node">
<title>4</title>
<ellipse fill="none" stroke="black" cx="212.04" cy="-666" rx="28.06" ry="18"/>
<text xml:space="preserve" text-anchor="middle" x="212.04" y="-661.33" font-family="Times,serif" font-size="14.00">PIT</text>
</g>
<!-- 1&#45;&#45;4 -->
<g id="edge5" class="edge">
<title>1&#45;&#45;4</title>
<path fill="none" stroke="black" d="M184.39,-720.76C190.21,-709.46 197.93,-694.44 203.74,-683.15"/>
</g>
<!-- 5 -->
<g id="node7" class="node">
<title>5</title>
<ellipse fill="none" stroke="black" cx="284.04" cy="-666" rx="106.98" ry="18"/>
<text xml:space="preserve" text-anchor="middle" x="284.04" y="-661.33" font-family="Times,serif" font-size="14.00">obtener_calendario</text>
</g>
<!-- 1&#45;&#45;5 -->
<g id="edge6" class="edge">
<title>1&#45;&#45;5</title>
<path fill="none" stroke="black" d="M194.85,-724.81C214.55,-712.04 245.32,-692.09 265.08,-679.29"/>
</g>
<!-- 6 -->
<g id="node8" class="node">
<title>6</title>
<ellipse fill="none" stroke="black" cx="248.04" cy="-594" rx="69.62" ry="18"/>
<text xml:space="preserve" text-anchor="middle" x="248.04" y="-589.33" font-family="Times,serif" font-size="14.00">crear_juego</text>
</g>
<!-- 5&#45;&#45;6 -->
<g id="edge7" class="edge">
<title>5&#45;&#45;6</title>
<path fill="none" stroke="black" d="M275.69,-648.76C269.87,-637.46 262.15,-622.44 256.34,-611.15"/>
</g>
<!-- 33 -->
<g id="node9" class="node">
<title>33</title>
<ellipse fill="none" stroke="black" cx="320.04" cy="-594" rx="27" ry="18"/>
<text xml:space="preserve" text-anchor="middle" x="320.04" y="-589.33" font-family="Times,serif" font-size="14.00">[]</text>
</g>
<!-- 5&#45;&#45;33 -->
<g id="edge8" class="edge">
<title>5&#45;&#45;33</title>
<path fill="none" stroke="black" d="M292.39,-648.76C298.21,-637.46 305.93,-622.44 311.74,-611.15"/>
</g>
<!-- 7 -->
<g id="node10" class="node">
<title>7</title>
<ellipse fill="none" stroke="black" cx="140.04" cy="-522" rx="68.04" ry="18"/>
<text xml:space="preserve" text-anchor="middle" x="140.04" y="-517.33" font-family="Times,serif" font-size="14.00">2026&#45;05&#45;11</text>
</g>
<!-- 6&#45;&#45;7 -->
<g id="edge9" class="edge">
<title>6&#45;&#45;7</title>
<path fill="none" stroke="black" d="M229.23,-580.81C209.53,-568.04 178.76,-548.09 159,-535.29"/>
</g>
<!-- 8 -->
<g id="node11" class="node">
<title>8</title>
<ellipse fill="none" stroke="black" cx="212.04" cy="-522" rx="29.11" ry="18"/>
<text xml:space="preserve" text-anchor="middle" x="212.04" y="-517.33" font-family="Times,serif" font-size="14.00">ARI</text>
</g>
<!-- 6&#45;&#45;8 -->
<g id="edge10" class="edge">
<title>6&#45;&#45;8</title>
<path fill="none" stroke="black" d="M239.69,-576.76C233.87,-565.46 226.15,-550.44 220.34,-539.15"/>
</g>
<!-- 9 -->
<g id="node12" class="node">
<title>9</title>
<ellipse fill="none" stroke="black" cx="284.04" cy="-522" rx="33.85" ry="18"/>
<text xml:space="preserve" text-anchor="middle" x="284.04" y="-517.33" font-family="Times,serif" font-size="14.00">CHA</text>
</g>
<!-- 6&#45;&#45;9 -->
<g id="edge11" class="edge">
<title>6&#45;&#45;9</title>
<path fill="none" stroke="black" d="M256.39,-576.76C262.21,-565.46 269.93,-550.44 275.74,-539.15"/>
</g>
<!-- 10 -->
<g id="node13" class="node">
<title>10</title>
<ellipse fill="none" stroke="black" cx="356.04" cy="-522" rx="106.98" ry="18"/>
<text xml:space="preserve" text-anchor="middle" x="356.04" y="-517.33" font-family="Times,serif" font-size="14.00">obtener_calendario</text>
</g>
<!-- 6&#45;&#45;10 -->
<g id="edge12" class="edge">
<title>6&#45;&#45;10</title>
<path fill="none" stroke="black" d="M266.85,-580.81C286.55,-568.04 317.32,-548.09 337.08,-535.29"/>
</g>
<!-- 11 -->
<g id="node14" class="node">
<title>11</title>
<ellipse fill="none" stroke="black" cx="320.04" cy="-450" rx="69.62" ry="18"/>
<text xml:space="preserve" text-anchor="middle" x="320.04" y="-445.32" font-family="Times,serif" font-size="14.00">crear_juego</text>
</g>
<!-- 10&#45;&#45;11 -->
<g id="edge13" class="edge">
<title>10&#45;&#45;11</title>
<path fill="none" stroke="black" d="M347.69,-504.76C341.87,-493.46 334.15,-478.44 328.34,-467.15"/>
</g>
<!-- 32 -->
<g id="node15" class="node">
<title>32</title>
<ellipse fill="none" stroke="black" cx="392.04" cy="-450" rx="27" ry="18"/>
<text xml:space="preserve" text-anchor="middle" x="392.04" y="-445.32" font-family="Times,serif" font-size="14.00">[]</text>
</g>
<!-- 10&#45;&#45;32 -->
<g id="edge14" class="edge">
<title>10&#45;&#45;32</title>
<path fill="none" stroke="black" d="M364.39,-504.76C370.21,-493.46 377.93,-478.44 383.74,-467.15"/>
</g>
<!-- 12 -->
<g id="node16" class="node">
<title>12</title>
<ellipse fill="none" stroke="black" cx="212.04" cy="-378" rx="68.04" ry="18"/>
<text xml:space="preserve" text-anchor="middle" x="212.04" y="-373.32" font-family="Times,serif" font-size="14.00">2026&#45;05&#45;12</text>
</g>
<!-- 11&#45;&#45;12 -->
<g id="edge15" class="edge">
<title>11&#45;&#45;12</title>
<path fill="none" stroke="black" d="M301.23,-436.81C281.53,-424.04 250.76,-404.09 231,-391.29"/>
</g>
<!-- 13 -->
<g id="node17" class="node">
<title>13</title>
<ellipse fill="none" stroke="black" cx="284.04" cy="-378" rx="34.37" ry="18"/>
<text xml:space="preserve" text-anchor="middle" x="284.04" y="-373.32" font-family="Times,serif" font-size="14.00">WAS</text>
</g>
<!-- 11&#45;&#45;13 -->
<g id="edge16" class="edge">
<title>11&#45;&#45;13</title>
<path fill="none" stroke="black" d="M311.69,-432.76C305.87,-421.46 298.15,-406.44 292.34,-395.15"/>
</g>
<!-- 14 -->
<g id="node18" class="node">
<title>14</title>
<ellipse fill="none" stroke="black" cx="356.04" cy="-378" rx="28.06" ry="18"/>
<text xml:space="preserve" text-anchor="middle" x="356.04" y="-373.32" font-family="Times,serif" font-size="14.00">PIT</text>
</g>
<!-- 11&#45;&#45;14 -->
<g id="edge17" class="edge">
<title>11&#45;&#45;14</title>
<path fill="none" stroke="black" d="M328.39,-432.76C334.21,-421.46 341.93,-406.44 347.74,-395.15"/>
</g>
<!-- 15 -->
<g id="node19" class="node">
<title>15</title>
<ellipse fill="none" stroke="black" cx="428.04" cy="-378" rx="106.98" ry="18"/>
<text xml:space="preserve" text-anchor="middle" x="428.04" y="-373.32" font-family="Times,serif" font-size="14.00">obtener_calendario</text>
</g>
<!-- 11&#45;&#45;15 -->
<g id="edge18" class="edge">
<title>11&#45;&#45;15</title>
<path fill="none" stroke="black" d="M338.85,-436.81C358.55,-424.04 389.32,-404.09 409.08,-391.29"/>
</g>
<!-- 16 -->
<g id="node20" class="node">
<title>16</title>
<ellipse fill="none" stroke="black" cx="392.04" cy="-306" rx="69.62" ry="18"/>
<text xml:space="preserve" text-anchor="middle" x="392.04" y="-301.32" font-family="Times,serif" font-size="14.00">crear_juego</text>
</g>
<!-- 15&#45;&#45;16 -->
<g id="edge19" class="edge">
<title>15&#45;&#45;16</title>
<path fill="none" stroke="black" d="M419.69,-360.76C413.87,-349.46 406.15,-334.44 400.34,-323.15"/>
</g>
<!-- 31 -->
<g id="node21" class="node">
<title>31</title>
<ellipse fill="none" stroke="black" cx="464.04" cy="-306" rx="27" ry="18"/>
<text xml:space="preserve" text-anchor="middle" x="464.04" y="-301.32" font-family="Times,serif" font-size="14.00">[]</text>
</g>
<!-- 15&#45;&#45;31 -->
<g id="edge20" class="edge">
<title>15&#45;&#45;31</title>
<path fill="none" stroke="black" d="M436.39,-360.76C442.21,-349.46 449.93,-334.44 455.74,-323.15"/>
</g>
<!-- 17 -->
<g id="node22" class="node">
<title>17</title>
<ellipse fill="none" stroke="black" cx="284.04" cy="-234" rx="68.04" ry="18"/>
<text xml:space="preserve" text-anchor="middle" x="284.04" y="-229.32" font-family="Times,serif" font-size="14.00">2026&#45;05&#45;12</text>
</g>
<!-- 16&#45;&#45;17 -->
<g id="edge21" class="edge">
<title>16&#45;&#45;17</title>
<path fill="none" stroke="black" d="M373.23,-292.81C353.53,-280.04 322.76,-260.09 303,-247.29"/>
</g>
<!-- 18 -->
<g id="node23" class="node">
<title>18</title>
<ellipse fill="none" stroke="black" cx="356.04" cy="-234" rx="29.11" ry="18"/>
<text xml:space="preserve" text-anchor="middle" x="356.04" y="-229.32" font-family="Times,serif" font-size="14.00">ARI</text>
</g>
<!-- 16&#45;&#45;18 -->
<g id="edge22" class="edge">
<title>16&#45;&#45;18</title>
<path fill="none" stroke="black" d="M383.69,-288.76C377.87,-277.46 370.15,-262.44 364.34,-251.15"/>
</g>
<!-- 19 -->
<g id="node24" class="node">
<title>19</title>
<ellipse fill="none" stroke="black" cx="428.04" cy="-234" rx="33.85" ry="18"/>
<text xml:space="preserve" text-anchor="middle" x="428.04" y="-229.32" font-family="Times,serif" font-size="14.00">CHA</text>
</g>
<!-- 16&#45;&#45;19 -->
<g id="edge23" class="edge">
<title>16&#45;&#45;19</title>
<path fill="none" stroke="black" d="M400.39,-288.76C406.21,-277.46 413.93,-262.44 419.74,-251.15"/>
</g>
<!-- 20 -->
<g id="node25" class="node">
<title>20</title>
<ellipse fill="none" stroke="black" cx="500.04" cy="-234" rx="106.98" ry="18"/>
<text xml:space="preserve" text-anchor="middle" x="500.04" y="-229.32" font-family="Times,serif" font-size="14.00">obtener_calendario</text>
</g>
<!-- 16&#45;&#45;20 -->
<g id="edge24" class="edge">
<title>16&#45;&#45;20</title>
<path fill="none" stroke="black" d="M410.85,-292.81C430.55,-280.04 461.32,-260.09 481.08,-247.29"/>
</g>
<!-- 21 -->
<g id="node26" class="node">
<title>21</title>
<ellipse fill="none" stroke="black" cx="464.04" cy="-162" rx="69.62" ry="18"/>
<text xml:space="preserve" text-anchor="middle" x="464.04" y="-157.32" font-family="Times,serif" font-size="14.00">crear_juego</text>
</g>
<!-- 20&#45;&#45;21 -->
<g id="edge25" class="edge">
<title>20&#45;&#45;21</title>
<path fill="none" stroke="black" d="M491.69,-216.76C485.87,-205.46 478.15,-190.44 472.34,-179.15"/>
</g>
<!-- 30 -->
<g id="node27" class="node">
<title>30</title>
<ellipse fill="none" stroke="black" cx="536.04" cy="-162" rx="27" ry="18"/>
<text xml:space="preserve" text-anchor="middle" x="536.04" y="-157.32" font-family="Times,serif" font-size="14.00">[]</text>
</g>
<!-- 20&#45;&#45;30 -->
<g id="edge26" class="edge">
<title>20&#45;&#45;30</title>
<path fill="none" stroke="black" d="M508.39,-216.76C514.21,-205.46 521.93,-190.44 527.74,-179.15"/>
</g>
<!-- 22 -->
<g id="node28" class="node">
<title>22</title>
<ellipse fill="none" stroke="black" cx="356.04" cy="-90" rx="68.04" ry="18"/>
<text xml:space="preserve" text-anchor="middle" x="356.04" y="-85.33" font-family="Times,serif" font-size="14.00">2026&#45;05&#45;13</text>
</g>
<!-- 21&#45;&#45;22 -->
<g id="edge27" class="edge">
<title>21&#45;&#45;22</title>
<path fill="none" stroke="black" d="M445.23,-148.81C425.53,-136.04 394.76,-116.09 375,-103.29"/>
</g>
<!-- 23 -->
<g id="node29" class="node">
<title>23</title>
<ellipse fill="none" stroke="black" cx="428.04" cy="-90" rx="34.37" ry="18"/>
<text xml:space="preserve" text-anchor="middle" x="428.04" y="-85.33" font-family="Times,serif" font-size="14.00">WAS</text>
</g>
<!-- 21&#45;&#45;23 -->
<g id="edge28" class="edge">
<title>21&#45;&#45;23</title>
<path fill="none" stroke="black" d="M455.69,-144.76C449.87,-133.46 442.15,-118.44 436.34,-107.15"/>
</g>
<!-- 24 -->
<g id="node30" class="node">
<title>24</title>
<ellipse fill="none" stroke="black" cx="500.04" cy="-90" rx="28.06" ry="18"/>
<text xml:space="preserve" text-anchor="middle" x="500.04" y="-85.33" font-family="Times,serif" font-size="14.00">PIT</text>
</g>
<!-- 21&#45;&#45;24 -->
<g id="edge29" class="edge">
<title>21&#45;&#45;24</title>
<path fill="none" stroke="black" d="M472.39,-144.76C478.21,-133.46 485.93,-118.44 491.74,-107.15"/>
</g>
<!-- 25 -->
<g id="node31" class="node">
<title>25</title>
<ellipse fill="none" stroke="black" cx="572.04" cy="-90" rx="69.62" ry="18"/>
<text xml:space="preserve" text-anchor="middle" x="572.04" y="-85.33" font-family="Times,serif" font-size="14.00">crear_juego</text>
</g>
<!-- 21&#45;&#45;25 -->
<g id="edge30" class="edge">
<title>21&#45;&#45;25</title>
<path fill="none" stroke="black" d="M482.85,-148.81C502.55,-136.04 533.32,-116.09 553.08,-103.29"/>
</g>
<!-- 26 -->
<g id="node32" class="node">
<title>26</title>
<ellipse fill="none" stroke="black" cx="464.04" cy="-18" rx="68.04" ry="18"/>
<text xml:space="preserve" text-anchor="middle" x="464.04" y="-13.32" font-family="Times,serif" font-size="14.00">2026&#45;05&#45;18</text>
</g>
<!-- 25&#45;&#45;26 -->
<g id="edge31" class="edge">
<title>25&#45;&#45;26</title>
<path fill="none" stroke="black" d="M553.23,-76.81C533.53,-64.04 502.76,-44.09 483,-31.29"/>
</g>
<!-- 27 -->
<g id="node33" class="node">
<title>27</title>
<ellipse fill="none" stroke="black" cx="536.04" cy="-18" rx="29.11" ry="18"/>
<text xml:space="preserve" text-anchor="middle" x="536.04" y="-13.32" font-family="Times,serif" font-size="14.00">ARI</text>
</g>
<!-- 25&#45;&#45;27 -->
<g id="edge32" class="edge">
<title>25&#45;&#45;27</title>
<path fill="none" stroke="black" d="M563.69,-72.77C557.87,-61.46 550.15,-46.44 544.34,-35.15"/>
</g>
<!-- 28 -->
<g id="node34" class="node">
<title>28</title>
<ellipse fill="none" stroke="black" cx="608.04" cy="-18" rx="33.85" ry="18"/>
<text xml:space="preserve" text-anchor="middle" x="608.04" y="-13.32" font-family="Times,serif" font-size="14.00">CHA</text>
</g>
<!-- 25&#45;&#45;28 -->
<g id="edge33" class="edge">
<title>25&#45;&#45;28</title>
<path fill="none" stroke="black" d="M580.39,-72.77C586.21,-61.46 593.93,-46.44 599.74,-35.15"/>
</g>
<!-- 29 -->
<g id="node35" class="node">
<title>29</title>
<ellipse fill="none" stroke="black" cx="680.04" cy="-18" rx="27" ry="18"/>
<text xml:space="preserve" text-anchor="middle" x="680.04" y="-13.32" font-family="Times,serif" font-size="14.00">[]</text>
</g>
<!-- 25&#45;&#45;29 -->
<g id="edge34" class="edge">
<title>25&#45;&#45;29</title>
<path fill="none" stroke="black" d="M590.85,-76.81C610.55,-64.04 641.32,-44.09 661.08,-31.29"/>
</g>
</g>
</svg>
