<?xml version="1.0" encoding="UTF-8" standalone="no"?>
<!DOCTYPE svg PUBLIC "-//W3C//DTD SVG 1.1//EN"
 "http://www.w3.org/Graphics/SVG/1.1/DTD/svg11.dtd">
<!-- Generated by graphviz version 14.1.5 (20260411.2331)
 -->
<!-- Pages: 1 -->
<svg width="565pt" height="1058pt"
 viewBox="0.00 0.00 565.00 1058.00" xmlns="http://www.w3.org/2000/svg" xmlns:xlink="http://www.w3.org/1999/xlink">
<g id="graph0" class="graph" transform="scale(1 1) rotate(0) translate(4 1053.93)">
<polygon fill="white" stroke="none" points="-4,4 -4,-1053.93 560.5,-1053.93 560.5,4 -4,4"/>
<!-- 0 -->
<g id="node1" class="node">
<title>0</title>
<ellipse fill="none" stroke="black" cx="127.86" cy="-956.49" rx="81.55" ry="18"/>
<text xml:space="preserve" text-anchor="middle" x="127.86" y="-951.44" font-family="Times New Roman,serif" font-size="14.00">obtener_calendario</text>
</g>
<!-- 1 -->
<g id="node2" class="node">
<title>1</title>
<ellipse fill="none" stroke="black" cx="123.41" cy="-873.33" rx="54.42" ry="18"/>
<text xml:space="preserve" text-anchor="middle" x="123.41" y="-868.28" font-family="Times New Roman,serif" font-size="14.00">crear_juego</text>
</g>
<!-- 0&#45;&#45;1 -->
<g id="edge1" class="edge">
<title>0&#45;&#45;1</title>
<path fill="none" stroke="black" d="M126.87,-938.04C126.13,-924.26 125.13,-905.51 124.39,-891.74"/>
</g>
<!-- 36 -->
<g id="node37" class="node">
<title>36</title>
<ellipse fill="none" stroke="black" cx="151.5" cy="-1031.93" rx="27" ry="18"/>
<text xml:space="preserve" text-anchor="middle" x="151.5" y="-1026.88" font-family="Times New Roman,serif" font-size="14.00">[]</text>
</g>
<!-- 0&#45;&#45;36 -->
<g id="edge36" class="edge">
<title>0&#45;&#45;36</title>
<path fill="none" stroke="black" d="M133.58,-974.76C137.3,-986.62 142.12,-1002.01 145.83,-1013.84"/>
</g>
<!-- 2 -->
<g id="node3" class="node">
<title>2</title>
<ellipse fill="none" stroke="black" cx="53.91" cy="-912.23" rx="53.91" ry="18"/>
<text xml:space="preserve" text-anchor="middle" x="53.91" y="-907.18" font-family="Times New Roman,serif" font-size="14.00">2026&#45;05&#45;11</text>
</g>
<!-- 1&#45;&#45;2 -->
<g id="edge2" class="edge">
<title>1&#45;&#45;2</title>
<path fill="none" stroke="black" d="M95.14,-889.16C90.78,-891.59 86.28,-894.11 81.93,-896.55"/>
</g>
<!-- 3 -->
<g id="node4" class="node">
<title>3</title>
<ellipse fill="none" stroke="black" cx="36.77" cy="-860.17" rx="27" ry="18"/>
<text xml:space="preserve" text-anchor="middle" x="36.77" y="-855.12" font-family="Times New Roman,serif" font-size="14.00">ARI</text>
</g>
<!-- 1&#45;&#45;3 -->
<g id="edge3" class="edge">
<title>1&#45;&#45;3</title>
<path fill="none" stroke="black" d="M73.52,-865.75C70.05,-865.23 66.65,-864.71 63.4,-864.21"/>
</g>
<!-- 4 -->
<g id="node5" class="node">
<title>4</title>
<ellipse fill="none" stroke="black" cx="188.62" cy="-926.35" rx="30.37" ry="18"/>
<text xml:space="preserve" text-anchor="middle" x="188.62" y="-921.3" font-family="Times New Roman,serif" font-size="14.00">CHA</text>
</g>
<!-- 1&#45;&#45;4 -->
<g id="edge4" class="edge">
<title>1&#45;&#45;4</title>
<path fill="none" stroke="black" d="M144.4,-890.4C152.89,-897.3 162.59,-905.18 170.74,-911.81"/>
</g>
<!-- 5 -->
<g id="node6" class="node">
<title>5</title>
<ellipse fill="none" stroke="black" cx="171.77" cy="-802.07" rx="81.55" ry="18"/>
<text xml:space="preserve" text-anchor="middle" x="171.77" y="-797.02" font-family="Times New Roman,serif" font-size="14.00">obtener_calendario</text>
</g>
<!-- 1&#45;&#45;5 -->
<g id="edge5" class="edge">
<title>1&#45;&#45;5</title>
<path fill="none" stroke="black" d="M135.61,-855.35C142.89,-844.63 152.1,-831.06 159.41,-820.3"/>
</g>
<!-- 6 -->
<g id="node7" class="node">
<title>6</title>
<ellipse fill="none" stroke="black" cx="172.81" cy="-713.12" rx="54.42" ry="18"/>
<text xml:space="preserve" text-anchor="middle" x="172.81" y="-708.07" font-family="Times New Roman,serif" font-size="14.00">crear_juego</text>
</g>
<!-- 5&#45;&#45;6 -->
<g id="edge6" class="edge">
<title>5&#45;&#45;6</title>
<path fill="none" stroke="black" d="M171.99,-783.64C172.17,-768.37 172.42,-746.78 172.6,-731.52"/>
</g>
<!-- 35 -->
<g id="node36" class="node">
<title>35</title>
<ellipse fill="none" stroke="black" cx="250.34" cy="-845.14" rx="27" ry="18"/>
<text xml:space="preserve" text-anchor="middle" x="250.34" y="-840.09" font-family="Times New Roman,serif" font-size="14.00">[]</text>
</g>
<!-- 5&#45;&#45;35 -->
<g id="edge35" class="edge">
<title>5&#45;&#45;35</title>
<path fill="none" stroke="black" d="M202.83,-819.09C211.75,-823.99 221.26,-829.2 229.41,-833.67"/>
</g>
<!-- 7 -->
<g id="node8" class="node">
<title>7</title>
<ellipse fill="none" stroke="black" cx="92.6" cy="-717.79" rx="53.91" ry="18"/>
<text xml:space="preserve" text-anchor="middle" x="92.6" y="-712.74" font-family="Times New Roman,serif" font-size="14.00">2026&#45;05&#45;11</text>
</g>
<!-- 6&#45;&#45;7 -->
<g id="edge7" class="edge">
<title>6&#45;&#45;7</title>
<path fill="none" stroke="black" d="M118.87,-716.26C118.75,-716.27 118.64,-716.28 118.53,-716.28"/>
</g>
<!-- 8 -->
<g id="node9" class="node">
<title>8</title>
<ellipse fill="none" stroke="black" cx="96" cy="-676.55" rx="27" ry="18"/>
<text xml:space="preserve" text-anchor="middle" x="96" y="-671.5" font-family="Times New Roman,serif" font-size="14.00">PIT</text>
</g>
<!-- 6&#45;&#45;8 -->
<g id="edge8" class="edge">
<title>6&#45;&#45;8</title>
<path fill="none" stroke="black" d="M141.12,-698.03C133.36,-694.33 125.21,-690.46 118.01,-687.03"/>
</g>
<!-- 9 -->
<g id="node10" class="node">
<title>9</title>
<ellipse fill="none" stroke="black" cx="240.75" cy="-748.99" rx="30.88" ry="18"/>
<text xml:space="preserve" text-anchor="middle" x="240.75" y="-743.94" font-family="Times New Roman,serif" font-size="14.00">WAS</text>
</g>
<!-- 6&#45;&#45;9 -->
<g id="edge9" class="edge">
<title>6&#45;&#45;9</title>
<path fill="none" stroke="black" d="M202.02,-728.54C207.19,-731.27 212.52,-734.09 217.51,-736.72"/>
</g>
<!-- 10 -->
<g id="node11" class="node">
<title>10</title>
<ellipse fill="none" stroke="black" cx="226.83" cy="-643.47" rx="81.55" ry="18"/>
<text xml:space="preserve" text-anchor="middle" x="226.83" y="-638.42" font-family="Times New Roman,serif" font-size="14.00">obtener_calendario</text>
</g>
<!-- 6&#45;&#45;10 -->
<g id="edge10" class="edge">
<title>6&#45;&#45;10</title>
<path fill="none" stroke="black" d="M186.44,-695.54C194.57,-685.06 204.85,-671.8 213.01,-661.28"/>
</g>
<!-- 11 -->
<g id="node12" class="node">
<title>11</title>
<ellipse fill="none" stroke="black" cx="233.61" cy="-555.61" rx="54.42" ry="18"/>
<text xml:space="preserve" text-anchor="middle" x="233.61" y="-550.56" font-family="Times New Roman,serif" font-size="14.00">crear_juego</text>
</g>
<!-- 10&#45;&#45;11 -->
<g id="edge11" class="edge">
<title>10&#45;&#45;11</title>
<path fill="none" stroke="black" d="M228.23,-625.26C229.39,-610.29 231.02,-589.15 232.19,-574.1"/>
</g>
<!-- 34 -->
<g id="node35" class="node">
<title>34</title>
<ellipse fill="none" stroke="black" cx="309.1" cy="-680.94" rx="27" ry="18"/>
<text xml:space="preserve" text-anchor="middle" x="309.1" y="-675.89" font-family="Times New Roman,serif" font-size="14.00">[]</text>
</g>
<!-- 10&#45;&#45;34 -->
<g id="edge34" class="edge">
<title>10&#45;&#45;34</title>
<path fill="none" stroke="black" d="M263.15,-660.02C271.07,-663.62 279.24,-667.34 286.44,-670.62"/>
</g>
<!-- 12 -->
<g id="node13" class="node">
<title>12</title>
<ellipse fill="none" stroke="black" cx="148.77" cy="-543.86" rx="53.91" ry="18"/>
<text xml:space="preserve" text-anchor="middle" x="148.77" y="-538.81" font-family="Times New Roman,serif" font-size="14.00">2026&#45;05&#45;12</text>
</g>
<!-- 11&#45;&#45;12 -->
<g id="edge12" class="edge">
<title>11&#45;&#45;12</title>
<path fill="none" stroke="black" d="M183.28,-548.64C183.14,-548.62 182.99,-548.6 182.85,-548.58"/>
</g>
<!-- 13 -->
<g id="node14" class="node">
<title>13</title>
<ellipse fill="none" stroke="black" cx="167.67" cy="-510.77" rx="27" ry="18"/>
<text xml:space="preserve" text-anchor="middle" x="167.67" y="-505.72" font-family="Times New Roman,serif" font-size="14.00">ARI</text>
</g>
<!-- 11&#45;&#45;13 -->
<g id="edge13" class="edge">
<title>11&#45;&#45;13</title>
<path fill="none" stroke="black" d="M209.43,-539.17C201.94,-534.07 193.78,-528.53 186.69,-523.7"/>
</g>
<!-- 14 -->
<g id="node15" class="node">
<title>14</title>
<ellipse fill="none" stroke="black" cx="304.28" cy="-586.76" rx="30.37" ry="18"/>
<text xml:space="preserve" text-anchor="middle" x="304.28" y="-581.71" font-family="Times New Roman,serif" font-size="14.00">CHA</text>
</g>
<!-- 11&#45;&#45;14 -->
<g id="edge14" class="edge">
<title>11&#45;&#45;14</title>
<path fill="none" stroke="black" d="M266.88,-570.27C271.17,-572.17 275.51,-574.08 279.63,-575.89"/>
</g>
<!-- 15 -->
<g id="node16" class="node">
<title>15</title>
<ellipse fill="none" stroke="black" cx="290.73" cy="-487.79" rx="81.55" ry="18"/>
<text xml:space="preserve" text-anchor="middle" x="290.73" y="-482.74" font-family="Times New Roman,serif" font-size="14.00">obtener_calendario</text>
</g>
<!-- 11&#45;&#45;15 -->
<g id="edge15" class="edge">
<title>11&#45;&#45;15</title>
<path fill="none" stroke="black" d="M248.32,-538.15C256.65,-528.25 267.05,-515.9 275.47,-505.9"/>
</g>
<!-- 16 -->
<g id="node17" class="node">
<title>16</title>
<ellipse fill="none" stroke="black" cx="300.11" cy="-400.47" rx="54.42" ry="18"/>
<text xml:space="preserve" text-anchor="middle" x="300.11" y="-395.42" font-family="Times New Roman,serif" font-size="14.00">crear_juego</text>
</g>
<!-- 15&#45;&#45;16 -->
<g id="edge16" class="edge">
<title>15&#45;&#45;16</title>
<path fill="none" stroke="black" d="M292.67,-469.7C294.27,-454.81 296.53,-433.8 298.14,-418.84"/>
</g>
<!-- 33 -->
<g id="node34" class="node">
<title>33</title>
<ellipse fill="none" stroke="black" cx="374.56" cy="-522.36" rx="27" ry="18"/>
<text xml:space="preserve" text-anchor="middle" x="374.56" y="-517.31" font-family="Times New Roman,serif" font-size="14.00">[]</text>
</g>
<!-- 15&#45;&#45;33 -->
<g id="edge33" class="edge">
<title>15&#45;&#45;33</title>
<path fill="none" stroke="black" d="M329.7,-503.86C337.05,-506.89 344.53,-509.97 351.21,-512.73"/>
</g>
<!-- 17 -->
<g id="node18" class="node">
<title>17</title>
<ellipse fill="none" stroke="black" cx="215.12" cy="-378.4" rx="53.91" ry="18"/>
<text xml:space="preserve" text-anchor="middle" x="215.12" y="-373.35" font-family="Times New Roman,serif" font-size="14.00">2026&#45;05&#45;16</text>
</g>
<!-- 16&#45;&#45;17 -->
<g id="edge17" class="edge">
<title>16&#45;&#45;17</title>
<path fill="none" stroke="black" d="M256.62,-389.18C256.46,-389.14 256.29,-389.1 256.13,-389.05"/>
</g>
<!-- 18 -->
<g id="node19" class="node">
<title>18</title>
<ellipse fill="none" stroke="black" cx="241.49" cy="-350.1" rx="30.88" ry="18"/>
<text xml:space="preserve" text-anchor="middle" x="241.49" y="-345.05" font-family="Times New Roman,serif" font-size="14.00">WAS</text>
</g>
<!-- 16&#45;&#45;18 -->
<g id="edge18" class="edge">
<title>16&#45;&#45;18</title>
<path fill="none" stroke="black" d="M280.27,-383.42C273.36,-377.48 265.66,-370.87 258.96,-365.11"/>
</g>
<!-- 19 -->
<g id="node20" class="node">
<title>19</title>
<ellipse fill="none" stroke="black" cx="373.13" cy="-427.56" rx="27" ry="18"/>
<text xml:space="preserve" text-anchor="middle" x="373.13" y="-422.51" font-family="Times New Roman,serif" font-size="14.00">PIT</text>
</g>
<!-- 16&#45;&#45;19 -->
<g id="edge19" class="edge">
<title>16&#45;&#45;19</title>
<path fill="none" stroke="black" d="M336.62,-414.02C340.9,-415.6 345.18,-417.19 349.22,-418.69"/>
</g>
<!-- 20 -->
<g id="node21" class="node">
<title>20</title>
<ellipse fill="none" stroke="black" cx="358.37" cy="-333.34" rx="81.55" ry="18"/>
<text xml:space="preserve" text-anchor="middle" x="358.37" y="-328.29" font-family="Times New Roman,serif" font-size="14.00">obtener_calendario</text>
</g>
<!-- 16&#45;&#45;20 -->
<g id="edge20" class="edge">
<title>16&#45;&#45;20</title>
<path fill="none" stroke="black" d="M315.42,-382.83C323.92,-373.04 334.45,-360.9 342.97,-351.09"/>
</g>
<!-- 21 -->
<g id="node22" class="node">
<title>21</title>
<ellipse fill="none" stroke="black" cx="369.36" cy="-246.34" rx="54.42" ry="18"/>
<text xml:space="preserve" text-anchor="middle" x="369.36" y="-241.29" font-family="Times New Roman,serif" font-size="14.00">crear_juego</text>
</g>
<!-- 20&#45;&#45;21 -->
<g id="edge21" class="edge">
<title>20&#45;&#45;21</title>
<path fill="none" stroke="black" d="M360.7,-314.89C362.57,-300.12 365.17,-279.52 367.03,-264.76"/>
</g>
<!-- 32 -->
<g id="node33" class="node">
<title>32</title>
<ellipse fill="none" stroke="black" cx="443.54" cy="-363.37" rx="27" ry="18"/>
<text xml:space="preserve" text-anchor="middle" x="443.54" y="-358.32" font-family="Times New Roman,serif" font-size="14.00">[]</text>
</g>
<!-- 20&#45;&#45;32 -->
<g id="edge32" class="edge">
<title>20&#45;&#45;32</title>
<path fill="none" stroke="black" d="M402.46,-348.88C408.3,-350.94 414.11,-352.99 419.44,-354.87"/>
</g>
<!-- 22 -->
<g id="node23" class="node">
<title>22</title>
<ellipse fill="none" stroke="black" cx="287.21" cy="-214.62" rx="53.91" ry="18"/>
<text xml:space="preserve" text-anchor="middle" x="287.21" y="-209.57" font-family="Times New Roman,serif" font-size="14.00">2026&#45;05&#45;18</text>
</g>
<!-- 21&#45;&#45;22 -->
<g id="edge22" class="edge">
<title>21&#45;&#45;22</title>
<path fill="none" stroke="black" d="M333.57,-232.52C330.11,-231.18 326.6,-229.83 323.14,-228.49"/>
</g>
<!-- 23 -->
<g id="node24" class="node">
<title>23</title>
<ellipse fill="none" stroke="black" cx="319.94" cy="-187.49" rx="30.88" ry="18"/>
<text xml:space="preserve" text-anchor="middle" x="319.94" y="-182.44" font-family="Times New Roman,serif" font-size="14.00">WAS</text>
</g>
<!-- 21&#45;&#45;23 -->
<g id="edge23" class="edge">
<title>21&#45;&#45;23</title>
<path fill="none" stroke="black" d="M354.53,-228.68C347.93,-220.83 340.21,-211.63 333.74,-203.93"/>
</g>
<!-- 24 -->
<g id="node25" class="node">
<title>24</title>
<ellipse fill="none" stroke="black" cx="445.3" cy="-266.32" rx="27" ry="18"/>
<text xml:space="preserve" text-anchor="middle" x="445.3" y="-261.27" font-family="Times New Roman,serif" font-size="14.00">ARI</text>
</g>
<!-- 21&#45;&#45;24 -->
<g id="edge24" class="edge">
<title>21&#45;&#45;24</title>
<path fill="none" stroke="black" d="M412.21,-257.61C414.77,-258.29 417.29,-258.95 419.74,-259.59"/>
</g>
<!-- 25 -->
<g id="node26" class="node">
<title>25</title>
<ellipse fill="none" stroke="black" cx="429.72" cy="-180.77" rx="81.55" ry="18"/>
<text xml:space="preserve" text-anchor="middle" x="429.72" y="-175.72" font-family="Times New Roman,serif" font-size="14.00">obtener_calendario</text>
</g>
<!-- 21&#45;&#45;25 -->
<g id="edge25" class="edge">
<title>21&#45;&#45;25</title>
<path fill="none" stroke="black" d="M385.53,-228.77C394.05,-219.51 404.49,-208.18 413.08,-198.85"/>
</g>
<!-- 26 -->
<g id="node27" class="node">
<title>26</title>
<ellipse fill="none" stroke="black" cx="440.71" cy="-96.04" rx="54.42" ry="18"/>
<text xml:space="preserve" text-anchor="middle" x="440.71" y="-90.99" font-family="Times New Roman,serif" font-size="14.00">crear_juego</text>
</g>
<!-- 25&#45;&#45;26 -->
<g id="edge26" class="edge">
<title>25&#45;&#45;26</title>
<path fill="none" stroke="black" d="M432.1,-162.39C433.95,-148.17 436.49,-128.59 438.33,-114.39"/>
</g>
<!-- 31 -->
<g id="node32" class="node">
<title>31</title>
<ellipse fill="none" stroke="black" cx="516.98" cy="-198.85" rx="27" ry="18"/>
<text xml:space="preserve" text-anchor="middle" x="516.98" y="-193.8" font-family="Times New Roman,serif" font-size="14.00">[]</text>
</g>
<!-- 25&#45;&#45;31 -->
<g id="edge31" class="edge">
<title>25&#45;&#45;31</title>
<path fill="none" stroke="black" d="M489.85,-193.23C490.21,-193.3 490.56,-193.37 490.91,-193.45"/>
</g>
<!-- 27 -->
<g id="node28" class="node">
<title>27</title>
<ellipse fill="none" stroke="black" cx="369.96" cy="-43.26" rx="53.91" ry="18"/>
<text xml:space="preserve" text-anchor="middle" x="369.96" y="-38.21" font-family="Times New Roman,serif" font-size="14.00">2026&#45;05&#45;18</text>
</g>
<!-- 26&#45;&#45;27 -->
<g id="edge27" class="edge">
<title>26&#45;&#45;27</title>
<path fill="none" stroke="black" d="M418.33,-79.34C410.07,-73.18 400.71,-66.2 392.45,-60.03"/>
</g>
<!-- 28 -->
<g id="node29" class="node">
<title>28</title>
<ellipse fill="none" stroke="black" cx="424" cy="-18" rx="27" ry="18"/>
<text xml:space="preserve" text-anchor="middle" x="424" y="-12.95" font-family="Times New Roman,serif" font-size="14.00">PIT</text>
</g>
<!-- 26&#45;&#45;28 -->
<g id="edge28" class="edge">
<title>26&#45;&#45;28</title>
<path fill="none" stroke="black" d="M436.84,-77.94C434.16,-65.42 430.6,-48.83 427.92,-36.27"/>
</g>
<!-- 29 -->
<g id="node30" class="node">
<title>29</title>
<ellipse fill="none" stroke="black" cx="493.91" cy="-38.21" rx="30.37" ry="18"/>
<text xml:space="preserve" text-anchor="middle" x="493.91" y="-33.16" font-family="Times New Roman,serif" font-size="14.00">CHA</text>
</g>
<!-- 26&#45;&#45;29 -->
<g id="edge29" class="edge">
<title>26&#45;&#45;29</title>
<path fill="none" stroke="black" d="M456.96,-78.37C464.05,-70.67 472.3,-61.7 479.21,-54.19"/>
</g>
<!-- 30 -->
<g id="node31" class="node">
<title>30</title>
<ellipse fill="none" stroke="black" cx="529.5" cy="-90.39" rx="27" ry="18"/>
<text xml:space="preserve" text-anchor="middle" x="529.5" y="-85.34" font-family="Times New Roman,serif" font-size="14.00">[]</text>
</g>
<!-- 26&#45;&#45;30 -->
<g id="edge30" class="edge">
<title>26&#45;&#45;30</title>
<path fill="none" stroke="black" d="M494.66,-92.61C497.28,-92.44 499.85,-92.28 502.33,-92.12"/>
</g>
</g>
</svg>
